# xmcd
#
# Track frame offsets: 
#        150
#        15006
#        36595
#        54659
#        71437
#        96767
#        119889
#        139881
#        158201
#        177621
#        196630
#        212438
#        229228
#
# Disc length: 3307 seconds
#
# Revision: 0
# Processed by: cddbd v1.5.2PL0 Copyright (c) Steve Scherf et al.
# Submitted via: ExactAudioCopy v0.99pb4
#
DISCID=b60ce90d
DTITLE=Johnny Clegg and Juluka - The Best Of Juluka
DYEAR=1991
DGENRE=World
TTITLE0=Umfazi Omdala
TTITLE1=Impi
TTITLE2=Siyayilanda
TTITLE3=Zodwa
TTITLE4=Scatterlings Of Africa
TTITLE5=Unkosibomvu - The Red King
TTITLE6=December African Rain
TTITLE7=African Sky Blue
TTITLE8=Walima 'Mabele
TTITLE9=Ibhola Lethu
TTITLE10=Sonqoba
TTITLE11=Fever
TTITLE12=Scatterlings Of Juluka (Mega Mix)
EXTD=
EXTT0=
EXTT1=
EXTT2=
EXTT3=
EXTT4=
EXTT5=
EXTT6=
EXTT7=
EXTT8=
EXTT9=
EXTT10=
EXTT11=
EXTT12=
PLAYORDER=
